<svg width="40" height="40" viewBox="0 0 40 40" fill="none" xmlns="http://www.w3.org/2000/svg">
<path d="M11.3517 24.8345C10.8008 24.2846 10.5933 24.5609 10.4708 24.6834C7.29848 27.851 4.48218 35.4941 5.97104 34.7476C11.3911 32.0302 12.2942 32.8392 15.4664 29.6718C15.589 29.5493 15.871 29.3475 15.3041 28.7813L11.3517 24.8345Z" fill="#FEC503"/>
<path d="M28.453 24.7921C28.3093 24.3353 28.6104 24.1151 28.7372 23.9785C35.7387 16.4305 40.1885 6.3742 36.891 3.08127C33.6108 -0.193919 23.8504 4.37918 16.2934 11.3201C16.1439 11.4576 15.8492 11.718 15.3221 11.6081L12.9676 11.0482C12.3139 10.893 11.3902 11.1539 10.9151 11.6284L2.27581 20.2549C1.80065 20.7295 1.95502 21.203 2.61891 21.307L8.8674 22.2876C9.53128 22.3919 10.4632 22.0888 10.9382 21.6143C10.9382 21.6143 11.2606 21.2915 11.5846 21.6148C13.3717 23.3991 16.6926 26.7152 18.3952 28.4154C18.7337 28.7532 18.4095 29.0746 18.4095 29.0746C17.9342 29.5492 17.6309 30.4795 17.7353 31.1426L18.7172 37.3818C18.8215 38.0449 19.2957 38.1991 19.7709 37.7245L28.4102 29.0978C28.8853 28.6233 29.1467 27.7012 28.991 27.0485L28.453 24.7921ZM26.5188 13.6471C25.0555 12.1859 25.0555 9.81717 26.5188 8.35623C27.982 6.89507 30.3542 6.89507 31.8176 8.35623C33.2807 9.81706 33.2807 12.1859 31.8176 13.647C30.3542 15.1081 27.9819 15.1081 26.5188 13.6471Z" fill="#FEC503"/>
</svg>
