<svg width="40" height="40" viewBox="0 0 40 40" fill="none" xmlns="http://www.w3.org/2000/svg">
<path d="M38.3334 31.6666C38.3334 32.1087 38.1578 32.5326 37.8452 32.8451C37.5326 33.1577 37.1087 33.3333 36.6667 33.3333H16.6667C16.2247 33.3333 15.8007 33.1577 15.4882 32.8451C15.1756 32.5326 15 32.1087 15 31.6666C15 29.0145 16.0536 26.4709 17.929 24.5956C19.8043 22.7202 22.3479 21.6666 25 21.6666H28.3334C30.9855 21.6666 33.5291 22.7202 35.4044 24.5956C37.2798 26.4709 38.3334 29.0145 38.3334 31.6666ZM26.6667 6.66663C25.3481 6.66663 24.0592 7.05762 22.9629 7.79016C21.8666 8.5227 21.0121 9.5639 20.5075 10.7821C20.0029 12.0002 19.8709 13.3407 20.1281 14.6339C20.3854 15.9271 21.0203 17.115 21.9526 18.0473C22.885 18.9797 24.0729 19.6146 25.3661 19.8719C26.6593 20.1291 27.9997 19.9971 29.2179 19.4925C30.4361 18.9879 31.4773 18.1334 32.2098 17.0371C32.9424 15.9408 33.3334 14.6518 33.3334 13.3333C33.3334 11.5652 32.631 9.86949 31.3807 8.61925C30.1305 7.369 28.4348 6.66663 26.6667 6.66663ZM11.6667 6.66663C10.3481 6.66663 9.05921 7.05762 7.96289 7.79016C6.86656 8.5227 6.01207 9.5639 5.50749 10.7821C5.00291 12.0002 4.87088 13.3407 5.12812 14.6339C5.38535 15.9271 6.02029 17.115 6.95264 18.0473C7.88499 18.9797 9.07288 19.6146 10.3661 19.8719C11.6593 20.1291 12.9997 19.9971 14.2179 19.4925C15.4361 18.9879 16.4773 18.1334 17.2098 17.0371C17.9424 15.9408 18.3334 14.6518 18.3334 13.3333C18.3334 11.5652 17.631 9.86949 16.3807 8.61925C15.1305 7.369 13.4348 6.66663 11.6667 6.66663ZM11.6667 31.6666C11.6642 29.916 12.0091 28.1822 12.6814 26.5658C13.3537 24.9494 14.3401 23.4825 15.5834 22.25C14.5659 21.8658 13.4876 21.6682 12.4 21.6666H10.9334C8.47703 21.671 6.12258 22.6488 4.3857 24.3856C2.64881 26.1225 1.67109 28.477 1.66669 30.9333V31.6666C1.66669 32.1087 1.84228 32.5326 2.15484 32.8451C2.4674 33.1577 2.89133 33.3333 3.33335 33.3333H11.9667C11.7726 32.7988 11.6712 32.2352 11.6667 31.6666Z" fill="#FEC503"/>
</svg>
