<svg width="40" height="40" viewBox="0 0 40 40" fill="none" xmlns="http://www.w3.org/2000/svg">
<g clip-path="url(#clip0_1911_15)">
<path d="M22.2003 23.6097L20.2078 24.6497C18.1602 25.7422 15.5677 25.2222 14.0552 23.4097L13.0752 22.2347C12.2452 21.2347 12.3127 19.7872 13.2327 18.8697L19.3378 12.7646L18.1352 12.0571C17.9427 11.9446 17.7227 11.8846 17.5002 11.8846H12.9602L13.6177 10.5696C13.9277 9.95211 13.6752 9.2021 13.0577 8.8921L9.30767 7.01708C8.69267 6.70958 7.94266 6.95958 7.63266 7.57709L0.132599 22.5772C-0.177403 23.1947 0.0750988 23.9447 0.692604 24.2547L4.44263 26.1297C4.62013 26.2197 4.81014 26.2597 5.00014 26.2597C5.46014 26.2597 5.90015 26.0047 6.12015 25.5697L6.54515 24.7222L16.2377 31.8898C17.3452 32.7073 18.6652 33.1148 19.9828 33.1148C21.3228 33.1148 22.6578 32.6923 23.7653 31.8498L28.1153 28.5098L22.2003 23.6097Z" fill="#FEC503"/>
<path d="M39.8679 22.5772L32.3679 7.57709C32.0578 6.95708 31.3103 6.70958 30.6903 7.01708L26.9403 8.8921C26.3228 9.2021 26.0728 9.95211 26.3803 10.5696L27.0403 11.8846H23.7528L15.0002 20.6347L15.9777 21.8097C16.7327 22.7147 18.0202 22.9797 19.0427 22.4372L22.5203 20.6247L30.1578 26.9522L33.3479 24.4922L33.8854 25.5672C34.1054 26.0047 34.5479 26.2572 35.0029 26.2572C35.1904 26.2572 35.3804 26.2147 35.5629 26.1247L39.3129 24.2497C39.9279 23.9447 40.1754 23.1947 39.8679 22.5772Z" fill="#FEC503"/>
</g>
<defs>
<clipPath id="clip0_1911_15">
<rect width="40" height="40" fill="white"/>
</clipPath>
</defs>
</svg>
