<svg width="38" height="40" viewBox="0 0 38 40" fill="none" xmlns="http://www.w3.org/2000/svg">
<path d="M19.286 13.7031C20.1266 12.8587 21.1793 12.2566 22.3333 11.9602V3.33333C22.3333 2.44928 21.9821 1.60143 21.357 0.976311C20.7319 0.35119 19.884 0 19 0L3.99996 0C3.1159 0 2.26806 0.35119 1.64294 0.976311C1.01782 1.60143 0.666626 2.44928 0.666626 3.33333V18.3333C0.666626 19.2174 1.01782 20.0652 1.64294 20.6904C2.26806 21.3155 3.1159 21.6667 3.99996 21.6667H11.3225L19.286 13.7031ZM15.6666 5C15.9963 5 16.3185 5.09775 16.5926 5.28088C16.8667 5.46402 17.0803 5.72432 17.2064 6.02886C17.3326 6.3334 17.3656 6.66852 17.3013 6.99182C17.237 7.31512 17.0782 7.61209 16.8451 7.84518C16.6121 8.07827 16.3151 8.237 15.9918 8.30131C15.6685 8.36562 15.3334 8.33261 15.0288 8.20647C14.7243 8.08032 14.464 7.8667 14.2808 7.59262C14.0977 7.31854 14 6.9963 14 6.66667C14 6.22464 14.1756 5.80072 14.4881 5.48816C14.8007 5.17559 15.2246 5 15.6666 5ZM15.6666 11.6667C15.9963 11.6667 16.3185 11.7644 16.5926 11.9476C16.8667 12.1307 17.0803 12.391 17.2064 12.6955C17.3326 13.0001 17.3656 13.3352 17.3013 13.6585C17.237 13.9818 17.0782 14.2788 16.8451 14.5118C16.6121 14.7449 16.3151 14.9037 15.9918 14.968C15.6685 15.0323 15.3334 14.9993 15.0288 14.8731C14.7243 14.747 14.464 14.5334 14.2808 14.2593C14.0977 13.9852 14 13.663 14 13.3333C14 12.8913 14.1756 12.4674 14.4881 12.1548C14.8007 11.8423 15.2246 11.6667 15.6666 11.6667ZM7.33329 5C7.66293 5 7.98516 5.09775 8.25924 5.28088C8.53333 5.46402 8.74695 5.72432 8.87309 6.02886C8.99924 6.3334 9.03224 6.66852 8.96794 6.99182C8.90363 7.31512 8.74489 7.61209 8.5118 7.84518C8.27872 8.07827 7.98175 8.237 7.65844 8.30131C7.33514 8.36562 7.00003 8.33261 6.69549 8.20647C6.39094 8.08032 6.13065 7.8667 5.94751 7.59262C5.76437 7.31854 5.66663 6.9963 5.66663 6.66667C5.66663 6.22464 5.84222 5.80072 6.15478 5.48816C6.46734 5.17559 6.89127 5 7.33329 5ZM7.33329 16.6667C7.00366 16.6667 6.68142 16.5689 6.40734 16.3858C6.13326 16.2026 5.91964 15.9424 5.79349 15.6378C5.66735 15.3333 5.63434 14.9982 5.69865 14.6749C5.76296 14.3515 5.92169 14.0546 6.15478 13.8215C6.38787 13.5884 6.68484 13.4297 7.00814 13.3654C7.33144 13.301 7.66655 13.3341 7.9711 13.4602C8.27564 13.5863 8.53594 13.8 8.71908 14.074C8.90221 14.3481 8.99996 14.6704 8.99996 15C8.99996 15.442 8.82436 15.866 8.5118 16.1785C8.19924 16.4911 7.77532 16.6667 7.33329 16.6667Z" fill="#FEC503"/>
<path d="M35.785 23.1313L27.2566 14.6027C26.9746 14.3198 26.644 14.09 26.2806 13.9242C24.17 12.9673 21.9381 13.4077 20.4645 14.8825L11.936 23.41C11.6531 23.692 11.4232 24.0226 11.2575 24.3861C10.3006 26.4967 10.741 28.7286 12.2158 30.2021L20.7441 38.7307C21.0261 39.0136 21.3567 39.2434 21.7202 39.4092C23.8308 40.3661 26.0627 39.9257 27.5362 38.4509L36.0647 29.9225C36.3477 29.6406 36.5775 29.3099 36.7433 28.9465C37.6993 26.8367 37.2589 24.6042 35.785 23.1313ZM24 28.3334C23.6703 28.3334 23.3481 28.2356 23.074 28.0525C22.7999 27.8694 22.5863 27.6091 22.4602 27.3045C22.334 27 22.301 26.6649 22.3653 26.3416C22.4296 26.0183 22.5884 25.7213 22.8214 25.4882C23.0545 25.2551 23.3515 25.0964 23.6748 25.0321C23.9981 24.9678 24.3332 25.0008 24.6378 25.1269C24.9423 25.2531 25.2026 25.4667 25.3857 25.7408C25.5689 26.0148 25.6666 26.3371 25.6666 26.6667C25.6666 27.1087 25.491 27.5327 25.1785 27.8452C24.8659 28.1578 24.442 28.3334 24 28.3334Z" fill="#FEC503"/>
</svg>
